<?xml version="1.0" encoding="utf-8"?>
<!-- Generator: Adobe Illustrator 21.0.0, SVG Export Plug-In . SVG Version: 6.00 Build 0)  -->
<svg version="1.1" id="Layer_1" xmlns="http://www.w3.org/2000/svg" xmlns:xlink="http://www.w3.org/1999/xlink" x="0px" y="0px"
	 viewBox="0 0 23 22" style="enable-background:new 0 0 23 22;" xml:space="preserve">
<style type="text/css">
	.st0{fill:#231F20;}
</style>
<title>Group 6</title>
<desc>Created with Sketch.</desc>
<g id="blog">
	<g id="Group-7" transform="translate(-1751.000000, -26.000000)">
		<g transform="translate(1751.000000, 24.000000)">
			<g id="Group-6" transform="translate(0.000000, 2.000000)">
				<path id="Path" class="st0" d="M19.4,19.2c0,1.3-1,2.4-2.4,2.4h-3.8v-6H9.1v6H5.4C4,21.6,3,20.5,3,19.2v-5.7
					c0-0.2,0.1-0.3,0.2-0.5l7.6-7.8c0.3-0.3,0.7-0.3,0.9,0l7.6,7.8c0.1,0.1,0.2,0.3,0.2,0.5L19.4,19.2L19.4,19.2z"/>
				<path id="Path_1_" class="st0" d="M22.4,11.8c-0.3,0.3-0.6,0.4-0.9,0.4s-0.7-0.1-0.9-0.4l-8.6-8.9c-0.3-0.3-0.8-0.3-1,0
					l-8.6,8.9c-0.5,0.5-1.3,0.5-1.8,0s-0.5-1.4,0-1.9L9,1c1.3-1.3,3.5-1.3,4.7,0l2.6,2.6V2.2c0-0.7,0.6-1.3,1.3-1.3
					c0.7,0,1.3,0.6,1.3,1.3v4.1l3.5,3.6C22.9,10.4,22.9,11.2,22.4,11.8z"/>
			</g>
		</g>
	</g>
</g>
</svg>
