<?xml version="1.0" encoding="utf-8"?>
<!-- Generator: Adobe Illustrator 21.0.0, SVG Export Plug-In . SVG Version: 6.00 Build 0)  -->
<svg version="1.1" id="Layer_1" xmlns="http://www.w3.org/2000/svg" xmlns:xlink="http://www.w3.org/1999/xlink" x="0px" y="0px"
	 viewBox="0 0 35 33" style="enable-background:new 0 0 35 33;" xml:space="preserve">
<style type="text/css">
	.st0{fill:#231F20;}
</style>
<title>Fill 1</title>
<desc>Created with Sketch.</desc>
<g id="blog">
	<g id="Group-5" transform="translate(-1060.000000, -1859.000000)">
		<g transform="translate(995.000000, 1858.000000)">
			<path id="Fill-1" class="st0" d="M92.8,14.2c0.5,0,0.9,0.4,0.9,0.9c0,0.5-0.4,0.9-0.9,0.9h-2.6v1.6h2.6c0.5,0,0.9,0.4,0.9,0.9
				c0,0.5-0.4,0.9-0.9,0.9h-3.5c-0.5,0-0.9-0.4-0.9-0.9v-6.7c0-0.5,0.4-0.9,0.9-0.9h3.5c0.5,0,0.9,0.4,0.9,0.9
				c0,0.5-0.4,0.9-0.9,0.9h-2.6v1.6H92.8z M87.1,18.3c0,0.5-0.4,0.9-0.9,0.9c-0.2,0-0.4-0.1-0.6-0.2c-0.1,0-3.6-4.7-3.6-4.7v4
				c0,0.5-0.4,0.9-0.9,0.9c-0.5,0-0.9-0.4-0.9-0.9v-6.6c0-0.5,0.4-0.9,0.8-0.9c0.3,0,0.5,0.1,0.7,0.3c0.1,0.1,3.6,4.7,3.6,4.7v-4.1
				c0-0.5,0.4-0.9,0.9-0.9c0.5,0,0.9,0.4,0.9,0.9V18.3z M78.9,18.6c0,0.4-0.3,0.7-0.7,0.7h-0.4c-0.4,0-0.7-0.3-0.7-0.7v-7
				c0-0.4,0.3-0.7,0.7-0.7h0.4c0.4,0,0.7,0.3,0.7,0.7V18.6z M75.4,19.3h-3.5c-0.5,0-0.9-0.4-0.9-0.9v-6.7c0-0.5,0.4-0.9,0.9-0.9
				c0.5,0,0.9,0.4,0.9,0.9v5.8h2.6c0.5,0,0.9,0.4,0.9,0.9C76.3,18.9,75.9,19.3,75.4,19.3L75.4,19.3z M99.5,14.1
				C99.1,6.8,91.5,1,82.2,1C72.7,1,65,7.1,65,14.7c0,7,6.5,12.7,15,13.6c0.5,0.1,0.9,0.5,0.8,1l-0.4,3.2c-0.1,0.7,0.7,1.3,1.3,0.9
				c7.1-3.4,11.4-7,14-10.1c0.5-0.6,2-2.7,2.3-3.2c0.7-1.2,1.1-2.5,1.3-3.8c0.1-0.4,0.1-0.8,0.1-1C99.5,15,99.5,14.3,99.5,14.1
				L99.5,14.1z"/>
		</g>
	</g>
</g>
</svg>
