<?xml version="1.0" encoding="utf-8"?>
<!-- Generator: Adobe Illustrator 21.0.0, SVG Export Plug-In . SVG Version: 6.00 Build 0)  -->
<svg version="1.1" id="Layer_1" xmlns="http://www.w3.org/2000/svg" xmlns:xlink="http://www.w3.org/1999/xlink" x="0px" y="0px"
	 viewBox="0 0 21 30" style="enable-background:new 0 0 21 30;" xml:space="preserve">
<style type="text/css">
	.st0{fill:#231F20;}
</style>
<title>Page 1</title>
<desc>Created with Sketch.</desc>
<g id="blog">
	<g id="Group-3" transform="translate(-365.000000, -1855.000000)">
		<g transform="translate(365.000000, 1852.000000)">
			<path id="Page-1" class="st0" d="M10.5,17c-2.1,0-3.8-1.8-3.8-3.9s1.7-3.9,3.8-3.9s3.8,1.8,3.8,3.9C14.3,15.2,12.6,17,10.5,17
				 M10.5,3L10.5,3C4.7,3,0,7.8,0,13.8c0,2.1,0.6,4.1,1.5,5.7l6.8,12.1c0.4,0.8,1.3,1.2,2.1,1.2c0.8,0,1.6-0.4,2.1-1.2l6.8-12.1
				c0.9-1.6,1.5-3.6,1.5-5.7C21,7.8,16.3,3,10.5,3"/>
		</g>
	</g>
</g>
</svg>
