<?xml version="1.0" encoding="utf-8"?>
<!-- Generator: Adobe Illustrator 21.0.0, SVG Export Plug-In . SVG Version: 6.00 Build 0)  -->
<svg version="1.1" id="Layer_1" xmlns="http://www.w3.org/2000/svg" xmlns:xlink="http://www.w3.org/1999/xlink" x="0px" y="0px"
	 viewBox="0 0 23 23" style="enable-background:new 0 0 23 23;" xml:space="preserve">
<style type="text/css">
	.st0{fill:#231F20;}
</style>
<title>Shape</title>
<desc>Created with Sketch.</desc>
<g id="blog">
	<g id="Shape" transform="translate(-1705.000000, -27.000000)">
		<path class="st0" d="M1727.4,46.7l-5-5c0,0-0.1,0-0.1-0.1c1-1.5,1.6-3.3,1.6-5.2c0-5.2-4.2-9.5-9.5-9.5s-9.5,4.2-9.5,9.5
			c0,5.2,4.2,9.5,9.5,9.5c1.9,0,3.7-0.6,5.2-1.6c0,0,0,0.1,0.1,0.1l5,5c0.8,0.8,2,0.8,2.7,0C1728.2,48.7,1728.2,47.5,1727.4,46.7
			L1727.4,46.7z M1714.5,42.6c-3.4,0-6.2-2.8-6.2-6.2c0-3.4,2.8-6.2,6.2-6.2c3.4,0,6.2,2.8,6.2,6.2
			C1720.6,39.9,1717.9,42.6,1714.5,42.6L1714.5,42.6z"/>
	</g>
</g>
</svg>
