<?xml version="1.0" encoding="utf-8"?>
<!-- Generator: Adobe Illustrator 21.0.0, SVG Export Plug-In . SVG Version: 6.00 Build 0)  -->
<svg version="1.1" id="Layer_1" xmlns="http://www.w3.org/2000/svg" xmlns:xlink="http://www.w3.org/1999/xlink" x="0px" y="0px"
	 viewBox="0 0 21 21" style="enable-background:new 0 0 21 21;" xml:space="preserve">
<style type="text/css">
	.st0{fill:#231F20;}
</style>
<g>
	<title>Page 1</title>
	<desc>Created with Sketch.</desc>
	<g id="blog">
		<g id="Page-1" transform="translate(-634.000000, -1855.000000)">
			<path class="st0" d="M645.2,1866.8C645.2,1866.8,645.2,1866.8,645.2,1866.8c0,0.1,0,0.1,0,0.1c0,0,0,0,0,0.1c0,0,0,0.1,0,0.1
				c0,0,0,0,0,0c0,0,0,0.1-0.1,0.1c0,0,0,0,0,0c0,0,0,0.1-0.1,0.1c0,0,0,0,0,0c0,0,0,0-0.1,0.1c0,0,0,0,0,0c0,0-0.1,0-0.1,0.1
				c0,0,0,0,0,0c0,0-0.1,0-0.1,0c0,0,0,0,0,0c0,0-0.1,0-0.1,0c0,0,0,0,0,0c0,0-0.1,0-0.1,0c0,0,0,0,0,0c0,0-0.1,0-0.1,0c0,0,0,0,0,0
				l-4-1.9c-0.4-0.2-0.5-0.6-0.3-1c0.2-0.4,0.6-0.5,1-0.3l3,1.4v-6.3c0-0.4,0.3-0.7,0.7-0.7s0.7,0.3,0.7,0.7L645.2,1866.8
				C645.2,1866.8,645.2,1866.8,645.2,1866.8 M644.5,1855c-5.8,0-10.5,4.7-10.5,10.5s4.7,10.5,10.5,10.5c5.8,0,10.5-4.7,10.5-10.5
				S650.3,1855,644.5,1855"/>
		</g>
	</g>
</g>
</svg>
