<?xml version="1.0" encoding="UTF-8"?>
<svg width="207px" height="27px" viewBox="0 0 207 27" version="1.1" xmlns="http://www.w3.org/2000/svg" xmlns:xlink="http://www.w3.org/1999/xlink">
    <!-- Generator: Sketch 41.2 (35397) - http://www.bohemiancoding.com/sketch -->
    <title>Group 8</title>
    <desc>Created with Sketch.</desc>
    <defs>
        <polygon id="path-1" points="2.53237938e-16 5.33271892 2.53237938e-16 0.279340541 5.09257353 0.279340541 5.09257353 5.33271892 0 5.33271892"></polygon>
        <polygon id="path-3" points="2.53237938e-16 5.22085135 2.53237938e-16 0.166743243 5.09257353 0.166743243 5.09257353 5.22085135 0 5.22085135"></polygon>
        <polygon id="path-5" points="4.98254675e-21 0.0548756757 4.98254675e-21 5.10810811 5.09257353 5.10810811 5.09257353 0.0548756757 0 0.0548756757"></polygon>
        <polygon id="path-7" points="5.66985294 5.10810811 0.578676471 5.10810811 0.578676471 0.0548756757 5.66985294 0.0548756757 5.66985294 5.10810811"></polygon>
        <polygon id="path-9" points="5.74889706 5.10810811 0.657720588 5.10810811 0.657720588 0.0548756757 5.74889706 0.0548756757"></polygon>
        <polygon id="path-11" points="0 26.6087919 124.846324 26.6087919 124.846324 -7.2972973e-05 0 -7.2972973e-05"></polygon>
    </defs>
    <g id="blog" stroke="none" stroke-width="1" fill="none" fill-rule="evenodd">
        <g transform="translate(-46.000000, -24.000000)" id="Group-8">
            <g transform="translate(46.000000, 18.000000)">
                <text id="BLOG" font-family="GenJyuuGothic-Heavy, Gen Jyuu Gothic" font-size="26" font-weight="600" fill="#2B7E3E">
                    <tspan x="136" y="28">BLOG</tspan>
                </text>
                <g id="Page-1" transform="translate(0.000000, 6.000000)">
                    <path d="M9.82022059,0 C11.2275735,0 12.3665441,1.13181081 12.3665441,2.52632432 C12.3665441,3.9222973 11.2275735,5.05337838 9.82022059,5.05337838 C8.41433824,5.05337838 7.27536765,3.9222973 7.27536765,2.52632432 C7.27536765,1.13181081 8.41433824,0 9.82022059,0 Z" id="Fill-1" fill="#53AA46"></path>
                    <path d="M17.0955882,0 C15.6897059,0 14.5492647,1.13181081 14.5492647,2.52632432 C14.5492647,3.9222973 15.6897059,5.05337838 17.0955882,5.05337838 C18.5014706,5.05337838 19.6404412,3.9222973 19.6404412,2.52632432 C19.6404412,1.13181081 18.5014706,0 17.0955882,0" id="Fill-3" fill="#53AA46"></path>
                    <path d="M24.3695588,0 C22.9636765,0 21.8247059,1.13181081 21.8247059,2.52632432 C21.8247059,3.9222973 22.9636765,5.05337838 24.3695588,5.05337838 C25.7769118,5.05337838 26.9158824,3.9222973 26.9158824,2.52632432 C26.9158824,1.13181081 25.7769118,0 24.3695588,0" id="Fill-5" fill="#53AA46"></path>
                    <path d="M24.3695588,7.18542973 C22.9636765,7.18542973 21.8247059,8.31651081 21.8247059,9.71248378 C21.8247059,11.107727 22.9636765,12.2388081 24.3695588,12.2388081 C25.7769118,12.2388081 26.9158824,11.107727 26.9158824,9.71248378 C26.9158824,8.31651081 25.7769118,7.18542973 24.3695588,7.18542973" id="Fill-7" fill="#53AA46"></path>
                    <path d="M17.0955882,7.18542973 C15.6897059,7.18542973 14.5492647,8.31651081 14.5492647,9.71248378 C14.5492647,11.107727 15.6897059,12.2388081 17.0955882,12.2388081 C18.5014706,12.2388081 19.6404412,11.107727 19.6404412,9.71248378 C19.6404412,8.31651081 18.5014706,7.18542973 17.0955882,7.18542973" id="Fill-9" fill="#2A7E3D"></path>
                    <path d="M9.82022059,7.18542973 C8.41433824,7.18542973 7.27536765,8.31651081 7.27536765,9.71248378 C7.27536765,11.107727 8.41433824,12.2388081 9.82022059,12.2388081 C11.2275735,12.2388081 12.3665441,11.107727 12.3665441,9.71248378 C12.3665441,8.31651081 11.2275735,7.18542973 9.82022059,7.18542973" id="Fill-11" fill="#2A7E3D"></path>
                    <g id="Group-15" transform="translate(0.000000, 6.906089)">
                        <mask id="mask-2" fill="white">
                            <use xlink:href="#path-1"></use>
                        </mask>
                        <g id="Clip-14"></g>
                        <path d="M2.54625,0.279340541 C1.14036765,0.279340541 -7.35294117e-05,1.41042162 -7.35294117e-05,2.80639459 C-7.35294117e-05,4.20163784 1.14036765,5.33271892 2.54625,5.33271892 C3.95213235,5.33271892 5.09257353,4.20163784 5.09257353,2.80639459 C5.09257353,1.41042162 3.95213235,0.279340541 2.54625,0.279340541" id="Fill-13" fill="#CABC00" mask="url(#mask-2)"></path>
                    </g>
                    <g id="Group-18" transform="translate(0.000000, 14.203386)">
                        <mask id="mask-4" fill="white">
                            <use xlink:href="#path-3"></use>
                        </mask>
                        <g id="Clip-17"></g>
                        <path d="M2.54625,0.166743243 C1.14036765,0.166743243 -7.35294117e-05,1.29855405 -7.35294117e-05,2.6937973 C-7.35294117e-05,4.08904054 1.14036765,5.22085135 2.54625,5.22085135 C3.95213235,5.22085135 5.09257353,4.08904054 5.09257353,2.6937973 C5.09257353,1.29855405 3.95213235,0.166743243 2.54625,0.166743243" id="Fill-16" fill="#CABC00" mask="url(#mask-4)"></path>
                    </g>
                    <path d="M17.0955882,14.3701297 C15.6897059,14.3701297 14.5492647,15.5019405 14.5492647,16.8971838 C14.5492647,18.292427 15.6897059,19.4242378 17.0955882,19.4242378 C18.5014706,19.4242378 19.6404412,18.292427 19.6404412,16.8971838 C19.6404412,15.5019405 18.5014706,14.3701297 17.0955882,14.3701297" id="Fill-19" fill="#2A7E3D"></path>
                    <path d="M9.82022059,14.3701297 C8.41433824,14.3701297 7.27536765,15.5019405 7.27536765,16.8971838 C7.27536765,18.292427 8.41433824,19.4242378 9.82022059,19.4242378 C11.2275735,19.4242378 12.3665441,18.292427 12.3665441,16.8971838 C12.3665441,15.5019405 11.2275735,14.3701297 9.82022059,14.3701297" id="Fill-21" fill="#2A7E3D"></path>
                    <g id="Group-25" transform="translate(0.000000, 21.500684)">
                        <mask id="mask-6" fill="white">
                            <use xlink:href="#path-5"></use>
                        </mask>
                        <g id="Clip-24"></g>
                        <path d="M2.54625,0.0548756757 C1.14036765,0.0548756757 -7.35294117e-05,1.18668649 -7.35294117e-05,2.58192973 C-7.35294117e-05,3.97717297 1.14036765,5.10825405 2.54625,5.10825405 C3.95213235,5.10825405 5.09257353,3.97717297 5.09257353,2.58192973 C5.09257353,1.18668649 3.95213235,0.0548756757 2.54625,0.0548756757" id="Fill-23" fill="#CABC00" mask="url(#mask-6)"></path>
                    </g>
                    <g id="Group-28" transform="translate(13.970588, 21.500684)">
                        <mask id="mask-8" fill="white">
                            <use xlink:href="#path-7"></use>
                        </mask>
                        <g id="Clip-27"></g>
                        <path d="M3.125,0.0548756757 C1.71911765,0.0548756757 0.578676471,1.18668649 0.578676471,2.58192973 C0.578676471,3.97717297 1.71911765,5.10825405 3.125,5.10825405 C4.53088235,5.10825405 5.66985294,3.97717297 5.66985294,2.58192973 C5.66985294,1.18668649 4.53088235,0.0548756757 3.125,0.0548756757" id="Fill-26" fill="#CABC00" mask="url(#mask-8)"></path>
                    </g>
                    <g id="Group-31" transform="translate(6.617647, 21.500684)">
                        <mask id="mask-10" fill="white">
                            <use xlink:href="#path-9"></use>
                        </mask>
                        <g id="Clip-30"></g>
                        <path d="M3.20257353,0.0548756757 C1.79669118,0.0548756757 0.657720588,1.18668649 0.657720588,2.58192973 C0.657720588,3.97717297 1.79669118,5.10825405 3.20257353,5.10825405 C4.60992647,5.10825405 5.74889706,3.97717297 5.74889706,2.58192973 C5.74889706,1.18668649 4.60992647,0.0548756757 3.20257353,0.0548756757" id="Fill-29" fill="#CABC00" mask="url(#mask-10)"></path>
                    </g>
                    <path d="M24.3695588,14.3701297 C22.9636765,14.3701297 21.8247059,15.5019405 21.8247059,16.8971838 C21.8247059,18.292427 22.9636765,19.4242378 24.3695588,19.4242378 C25.7769118,19.4242378 26.9158824,18.292427 26.9158824,16.8971838 C26.9158824,15.5019405 25.7769118,14.3701297 24.3695588,14.3701297" id="Fill-32" fill="#53AA46"></path>
                    <mask id="mask-12" fill="white">
                        <use xlink:href="#path-11"></use>
                    </mask>
                    <g id="Clip-35"></g>
                    <path d="M69.2183824,12.1820351 L74.0522059,12.1820351 L74.0522059,7.66573784 L69.2183824,7.66573784 L69.2183824,12.1820351 Z M69.2183824,19.8062514 L74.0522059,19.8062514 L74.0522059,15.2673324 L69.2183824,15.2673324 L69.2183824,19.8062514 Z M61.1610294,12.1820351 L65.8588235,12.1820351 L65.8588235,7.66573784 L61.1610294,7.66573784 L61.1610294,12.1820351 Z M61.1610294,19.8062514 L65.8588235,19.8062514 L65.8588235,15.2673324 L61.1610294,15.2673324 L61.1610294,19.8062514 Z M76.2985294,4.58044054 L58.9154412,4.58044054 C58.075,4.58044054 57.7352941,4.91830541 57.7352941,5.75165676 L57.7352941,21.6977108 C57.7352941,22.5529541 58.075,22.8908189 58.9154412,22.8908189 L76.2985294,22.8908189 C77.1367647,22.8908189 77.4772059,22.5529541 77.4772059,21.6977108 L77.4772059,5.75165676 C77.4772059,4.91830541 77.1367647,4.58044054 76.2985294,4.58044054 L76.2985294,4.58044054 Z" id="Fill-34" fill="#404041" mask="url(#mask-12)"></path>
                    <path d="M46.0852941,12.1820351 L50.9176471,12.1820351 L50.9176471,7.66573784 L46.0852941,7.66573784 L46.0852941,12.1820351 Z M46.0852941,19.8062514 L50.9176471,19.8062514 L50.9176471,15.2673324 L46.0852941,15.2673324 L46.0852941,19.8062514 Z M38.0279412,12.1820351 L42.7257353,12.1820351 L42.7257353,7.66573784 L38.0279412,7.66573784 L38.0279412,12.1820351 Z M38.0279412,19.8062514 L42.7257353,19.8062514 L42.7257353,15.2673324 L38.0279412,15.2673324 L38.0279412,19.8062514 Z M53.1654412,4.58044054 L35.7823529,4.58044054 C34.9426471,4.58044054 34.6022059,4.91830541 34.6022059,5.75165676 L34.6022059,21.6977108 C34.6022059,22.5529541 34.9426471,22.8908189 35.7823529,22.8908189 L53.1654412,22.8908189 C54.0036765,22.8908189 54.3441176,22.5529541 54.3441176,21.6977108 L54.3441176,5.75165676 C54.3441176,4.91830541 54.0036765,4.58044054 53.1654412,4.58044054 L53.1654412,4.58044054 Z" id="Fill-36" fill="#404041" mask="url(#mask-12)"></path>
                    <path d="M90.3852206,15.4689568 C90.3852206,15.7849297 90.5447794,15.8746865 91.0888971,15.8746865 L100.597721,15.8746865 C101.141838,15.8746865 101.301397,15.7849297 101.301397,15.4689568 C101.301397,15.425173 101.23375,15.2668216 101.120515,15.0413351 L100.120515,12.9243892 C99.9844853,12.6310378 99.8705147,12.4741459 99.3263971,12.4741459 L97.9646324,12.4741459 C97.4881618,12.4741459 97.2844853,12.5865243 97.2844853,12.9243892 C97.2844853,12.9820378 97.4558088,13.3614973 97.6322794,13.7351189 L94.2521324,13.7351189 L94.9690441,12.0691459 C95.0352206,11.9268486 95.0888971,11.807173 95.1440441,11.6853081 L100.347721,11.6853081 C100.960956,11.6853081 101.028603,11.5955514 101.028603,10.9876865 L101.028603,9.79457838 C101.028603,9.18671351 100.960956,9.11884865 100.347721,9.11884865 L97.2844853,9.11884865 L97.2844853,9.07287568 C97.2844853,8.10452432 97.1477206,7.99214595 96.1955147,7.99214595 L95.2418382,7.99214595 C94.2653676,7.99214595 94.1521324,8.10452432 94.1521324,9.07287568 L94.1521324,9.11884865 L91.2021324,9.11884865 C90.5888971,9.11884865 90.52125,9.18671351 90.52125,9.79457838 L90.52125,10.9876865 C90.52125,11.5955514 90.5888971,11.6853081 91.2021324,11.6853081 L92.1403676,11.6853081 L90.5675735,15.0413351 C90.4543382,15.2668216 90.3852206,15.425173 90.3852206,15.4689568" id="Fill-37" fill="#404041" mask="url(#mask-12)"></path>
                    <path d="M89.8179412,20.8963216 L89.2275,19.6805919 C89.0694118,19.3653486 88.8429412,19.4105919 88.6157353,19.5229703 C88.4885294,19.5718622 88.1547059,19.8294568 87.6855882,20.1067541 L87.6855882,17.2710243 L88.9789706,17.2710243 C89.5907353,17.2710243 89.6598529,17.1805378 89.6598529,16.572673 L89.6598529,15.6043216 C89.6598529,14.9964568 89.5907353,14.9285919 88.9789706,14.9285919 L87.6855882,14.9285919 L87.6855882,14.1404838 L89.8635294,9.45634865 C89.9547059,9.20824054 90.0451471,9.0279973 90.0451471,8.87037568 C90.0451471,8.66824054 89.8870588,8.6229973 89.3429412,8.6229973 L81.8069118,8.6229973 C81.1951471,8.6229973 81.1267647,8.69013243 81.1267647,9.2979973 L81.1267647,10.6042135 C81.1267647,11.2135378 81.1951471,11.3032946 81.8069118,11.3032946 L85.8319118,11.3032946 L84.9627941,13.1502405 C84.7583824,13.5545108 84.7797059,13.7354838 84.7797059,14.2076189 L84.7591176,20.8539973 C83.8826471,20.7635108 83.6223529,20.3366189 83.6223529,19.1405919 L83.6223529,14.3433486 C83.6223529,13.3749973 83.6223529,13.2618892 82.5341176,13.2618892 L82.0341176,13.2618892 C81.0591176,13.2618892 80.9458824,13.3749973 80.9458824,14.3433486 L80.9458824,19.8608351 C80.9458824,22.2492405 82.6025,23.5992405 84.8488235,23.5992405 C87.0951471,23.5992405 89.0929412,22.2032676 89.7502941,21.5501595 C89.9775,21.3254027 89.9775,21.2122946 89.8179412,20.8963216" id="Fill-38" fill="#404041" mask="url(#mask-12)"></path>
                    <path d="M100.506985,7.31656216 C101.459191,7.31656216 101.595221,7.18156216 101.595221,6.23656216 L101.595221,5.58272432 C101.595221,4.63699459 101.459191,4.50199459 100.506985,4.50199459 L97.3069853,4.50199459 L97.3069853,3.78029189 C97.3069853,2.81267027 97.1709559,2.70029189 96.2172794,2.70029189 L95.2636029,2.70029189 C94.2886029,2.70029189 94.1753676,2.81267027 94.1753676,3.78029189 L94.1753676,4.50199459 L87.7761029,4.50199459 L87.7761029,3.78029189 C87.7761029,2.81267027 87.6393382,2.70029189 86.6856618,2.70029189 L85.7334559,2.70029189 C84.7584559,2.70029189 84.64375,2.81267027 84.64375,3.78029189 L84.64375,4.50199459 L81.6952206,4.50199459 C80.7415441,4.50199459 80.6055147,4.63699459 80.6055147,5.58272432 L80.6055147,6.23656216 C80.6055147,7.18156216 80.7415441,7.31656216 81.6952206,7.31656216 L100.506985,7.31656216 Z" id="Fill-39" fill="#404041" mask="url(#mask-12)"></path>
                    <path d="M92.5177941,16.7082568 L92.0655882,16.7082568 C91.0442647,16.7082568 91.02,16.8199054 90.9751471,17.7889865 C90.9082353,19.5002027 90.5677941,20.8523919 90.1582353,21.7302568 C89.6832353,22.3607432 89.8869118,22.766473 90.4538235,23.036473 L91.1575,23.3517162 C91.8604412,23.7122027 92.2464706,23.6895811 92.4736765,23.3517162 C93.3347059,21.7076351 93.5170588,19.8161757 93.6075,17.7889865 C93.6538235,16.8199054 93.4714706,16.7082568 92.5177941,16.7082568" id="Fill-40" fill="#404041" mask="url(#mask-12)"></path>
                    <path d="M101.414632,21.4151595 C101.369044,21.2349162 101.345515,21.1670514 101.209485,21.1670514 C101.095515,21.1670514 100.869044,21.3472946 100.643309,21.3472946 C100.097721,21.3472946 100.074926,20.8291865 100.074926,19.9965649 L100.074926,17.7891324 C100.074926,16.8200514 99.9396324,16.7084027 98.9859559,16.7084027 L98.6455147,16.7084027 C97.6705147,16.7084027 97.5558088,16.8200514 97.5558088,17.7891324 L97.5558088,20.3789432 C97.5558088,22.2930243 97.8513971,23.5992405 99.9609559,23.5992405 C101.120515,23.5992405 101.799191,23.1489973 101.685956,22.7666189 L101.414632,21.4151595 Z" id="Fill-41" fill="#404041" mask="url(#mask-12)"></path>
                    <path d="M95.7893382,16.7082568 L95.3452206,16.7082568 C94.3702206,16.7082568 94.2569853,16.8199054 94.2569853,17.7889865 L94.2569853,22.4505 C94.2569853,23.3969595 94.3702206,23.5319595 95.3452206,23.5319595 L95.7893382,23.5319595 C96.7430147,23.5319595 96.8775735,23.3969595 96.8775735,22.4505 L96.8775735,17.7889865 C96.8775735,16.8199054 96.7430147,16.7082568 95.7893382,16.7082568" id="Fill-42" fill="#404041" mask="url(#mask-12)"></path>
                    <path d="M108.030882,8.14152162 L112.75,8.14152162 L112.75,6.49744054 L108.030882,6.49744054 L108.030882,8.14152162 Z M108.030882,11.9251703 L112.75,11.9251703 L112.75,10.4387108 L108.030882,10.4387108 L108.030882,11.9251703 Z M115.882353,11.9251703 L120.693382,11.9251703 L120.693382,10.4387108 L115.882353,10.4387108 L115.882353,11.9251703 Z M115.882353,8.14152162 L120.693382,8.14152162 L120.693382,6.49744054 L115.882353,6.49744054 L115.882353,8.14152162 Z M123.756618,15.5738189 L115.882353,15.5738189 L115.882353,14.4471162 L122.825735,14.4471162 C123.666176,14.4471162 123.779412,14.3354676 123.779412,13.4794946 L123.779412,4.58262973 C123.779412,3.75000811 123.666176,3.6369 122.825735,3.6369 L105.897059,3.6369 C105.058088,3.6369 104.944853,3.75000811 104.944853,4.58262973 L104.944853,13.4794946 C104.944853,14.3354676 105.058088,14.4471162 105.897059,14.4471162 L112.75,14.4471162 L112.75,15.5738189 L104.944853,15.5738189 C103.991176,15.5738189 103.854412,15.7080892 103.854412,16.6545486 L103.854412,17.1952784 C103.854412,18.1402784 103.991176,18.2760081 104.944853,18.2760081 L109.411765,18.2760081 C108.028676,19.5712784 106.119853,20.5089811 104.469118,20.9205486 C104.133088,21.0044676 103.941912,21.3233595 104.101471,21.8188459 L104.444853,22.8484946 C104.627206,23.365873 105.058088,23.500873 105.466176,23.500873 C107.130147,23.500873 111.214706,21.3999811 112.747794,18.2760081 L112.75,18.2760081 L112.75,22.5325216 C112.75,23.4782514 112.886029,23.6132514 113.839706,23.6132514 L114.793382,23.6132514 C115.745588,23.6132514 115.882353,23.4782514 115.882353,22.5325216 L115.882353,18.2760081 L115.906618,18.2760081 C117.440441,21.3999811 121.526471,23.500873 123.188971,23.500873 C123.597059,23.500873 124.029412,23.365873 124.210294,22.8484946 L124.573529,21.7969541 C124.733088,21.3007378 124.638235,21.005927 124.302206,20.9190892 C122.713235,20.5046027 120.708824,19.5698189 119.273529,18.2760081 L123.756618,18.2760081 C124.709559,18.2760081 124.846324,18.1402784 124.846324,17.1952784 L124.846324,16.6545486 C124.846324,15.7080892 124.709559,15.5738189 123.756618,15.5738189 L123.756618,15.5738189 Z" id="Fill-43" fill="#404041" mask="url(#mask-12)"></path>
                </g>
            </g>
        </g>
    </g>
</svg>